<mxfile host="app.diagrams.net" modified="2024-07-10T06:21:29.096Z" agent="Mozilla/5.0 (X11; Linux x86_64) AppleWebKit/537.36 (KHTML, like Gecko) Chrome/124.0.0.0 YaBrowser/24.6.0.0 Safari/537.36" version="24.6.4" etag="yPAWHcX2pNKCLwd2GBW2" type="github">
  <diagram name="Страница — 1" id="_EooAJ4rh3Q8QO7zF6L_">
    <mxGraphModel>
      <root>
        <mxCell id="0" />
        <mxCell id="1" parent="0" />
      </root>
    </mxGraphModel>
  </diagram>
</mxfile>
